<?xml version="1.0" standalone="no"?>
<!DOCTYPE svg PUBLIC "-//W3C//DTD SVG 20010904//EN"
 "ht<title>Zylo Office.org/TR/2001/REC-SVG-20010904/DTD/svg10.dtd">
<svg version="1.0" xmlns="http://www.w3.org/2000/svg"
 width="512.000000pt" height="225.000000pt" viewBox="0 0 512.000000 225.000000"
 preserveAspectRatio="xMidYMid meet">

<g transform="translate(0.000000,225.000000) scale(0.100000,-0.100000)"
fill="#000000" stroke="none">
<path d="M884 2221 c-16 -10 -56 -33 -89 -51 -33 -18 -76 -42 -95 -53 -66 -38
-235 -134 -445 -252 -116 -65 -220 -125 -232 -133 l-23 -14 0 -588 0 -588 112
-65 c62 -35 167 -95 233 -132 153 -87 168 -95 239 -134 32 -18 80 -46 106 -61
26 -15 74 -43 106 -61 33 -18 73 -40 89 -49 28 -16 32 -16 60 0 17 9 57 32 90
50 33 18 89 50 125 70 60 35 269 153 548 310 l112 63 0 589 c0 323 1 591 3
595 1 4 -61 43 -138 87 -182 102 -500 282 -595 336 -194 110 -172 101 -206 81z
m607 -503 c73 -41 92 -144 36 -199 -20 -20 -236 -221 -257 -239 -16 -14 -127
-116 -315 -290 -38 -36 -101 -93 -139 -127 -38 -34 -65 -66 -62 -72 9 -14 572
-15 630 -2 56 13 101 3 142 -33 33 -28 38 -38 41 -87 3 -42 0 -61 -16 -86 -44
-69 -12 -66 -623 -64 -514 2 -554 4 -587 21 -20 10 -43 31 -51 46 -21 38 -18
115 5 145 10 13 84 84 164 157 80 73 181 165 223 205 43 40 149 137 237 217
88 80 160 151 160 158 1 9 -78 12 -364 12 l-365 0 -37 34 c-34 31 -37 38 -37
88 0 62 18 94 67 120 29 16 79 17 571 18 534 0 539 0 577 -22z"/>
<path d="M2663 1684 c-2 -6 -3 -40 -1 -75 l3 -64 233 -3 c127 -1 232 -5 232
-7 0 -3 -42 -58 -93 -123 -51 -64 -101 -129 -112 -143 -11 -15 -75 -98 -143
-184 l-123 -158 3 -74 3 -74 340 0 340 0 3 76 3 75 -231 0 c-126 0 -230 4
-230 8 0 5 38 58 86 118 47 60 150 193 230 296 l145 187 -3 76 -3 76 -339 2
c-240 1 -340 -1 -343 -9z"/>
<path d="M4147 1692 c-16 -3 -17 -42 -17 -458 0 -397 2 -454 15 -455 8 0 44 0
80 0 36 0 70 0 75 0 12 1 14 911 3 912 -44 3 -143 3 -156 1z"/>
<path d="M4662 1454 c-99 -27 -154 -74 -199 -169 -26 -55 -28 -69 -28 -180 0
-112 2 -124 29 -178 56 -114 136 -166 270 -174 182 -12 309 73 350 234 45 173
-12 360 -131 430 -86 50 -192 64 -291 37z m188 -154 c49 -35 75 -103 74 -195
0 -93 -22 -147 -77 -189 -40 -31 -113 -35 -156 -10 -105 62 -120 299 -24 386
46 42 130 46 183 8z"/>
<path d="M3401 1452 c-9 -3 10 -69 39 -137 5 -11 20 -53 34 -92 48 -134 74
-207 117 -323 53 -144 58 -189 30 -229 -23 -32 -79 -56 -110 -46 -17 5 -20 0
-23 -55 -1 -34 -1 -64 1 -66 2 -2 34 -4 71 -4 78 0 156 33 182 78 15 26 52
125 113 307 21 61 83 240 169 484 14 41 24 77 21 79 -2 3 -42 5 -87 5 l-83 0
-12 -44 c-12 -44 -110 -389 -120 -421 -3 -10 -8 -18 -12 -18 -3 0 -20 48 -38
108 -71 244 -102 342 -111 358 -8 14 -25 17 -91 18 -44 1 -85 0 -90 -2z"/>
</g>
</svg>
